<?xml version="1.0" encoding="UTF-8" standalone="no"?>
<!-- Copyright Browell Creative Advertising 2004 Luke@Browell.info for distribution with the Lyric Display System Lyricue under the GNU Public Licence  -->
<svg
   xmlns:dc="http://purl.org/dc/elements/1.1/"
   xmlns:cc="http://web.resource.org/cc/"
   xmlns:rdf="http://www.w3.org/1999/02/22-rdf-syntax-ns#"
   xmlns:svg="http://www.w3.org/2000/svg"
   xmlns="http://www.w3.org/2000/svg"
   xmlns:sodipodi="http://sodipodi.sourceforge.net/DTD/sodipodi-0.dtd"
   xmlns:inkscape="http://www.inkscape.org/namespaces/inkscape"
   width="300"
   height="79.589996"
   viewBox="0 0 280.824 63.673"
   xml:space="preserve"
   id="svg2646"
   sodipodi:version="0.32"
   inkscape:version="0.45"
   sodipodi:docname="precue.svg"
   sodipodi:docbase="/home/cjd/source/Lyricue/precue/images"
   inkscape:output_extension="org.inkscape.output.svg.inkscape"
   version="1.0"
   inkscape:export-filename="/home/cjd/source/Lyricue/precue/images/precue.png"
   inkscape:export-xdpi="194.50999"
   inkscape:export-ydpi="194.50999"
   sodipodi:modified="TRUE"><metadata
   id="metadata2718"><rdf:RDF><cc:Work
       rdf:about=""><dc:format>image/svg+xml</dc:format><dc:type
         rdf:resource="http://purl.org/dc/dcmitype/StillImage" /></cc:Work></rdf:RDF></metadata><defs
   id="defs2716">
		
		
		
		
		
		
		
		
		
		
		
		
		
		
		
		
		
		
		
		
		
		
		
		
		
		
		
		
		
		
		
		
		
	<filter
   inkscape:collect="always"
   id="filter3785"><feGaussianBlur
     inkscape:collect="always"
     stdDeviation="0.75934746"
     id="feGaussianBlur3787" /></filter>



</defs><sodipodi:namedview
   inkscape:window-height="604"
   inkscape:window-width="828"
   inkscape:pageshadow="2"
   inkscape:pageopacity="0.0"
   guidetolerance="10.0"
   gridtolerance="10.0"
   objecttolerance="10.0"
   borderopacity="1.0"
   bordercolor="#666666"
   pagecolor="#ffffff"
   id="base"
   width="300px"
   height="79.59px"
   inkscape:zoom="2.8398692"
   inkscape:cx="131.63005"
   inkscape:cy="34.701846"
   inkscape:window-x="272"
   inkscape:window-y="164"
   inkscape:current-layer="svg2646"
   showborder="true"
   inkscape:showpageshadow="true" />
	
<path
   inkscape:export-ydpi="10.43"
   inkscape:export-xdpi="10.43"
   inkscape:export-filename="/home/cjd/source/Lyricue/precue/images/text2757.png"
   style="fill:#ff0000;fill-rule:nonzero;stroke:#000000;stroke-width:0.46803999;stroke-miterlimit:4;stroke-dasharray:none;stroke-opacity:0.54000005;filter:url(#filter3785);opacity:1"
   d="M 178.98232,40.833693 C 178.70132,43.913693 176.29332,52.481693 165.37332,52.481693 C 154.17432,52.481693 151.59832,43.913693 151.59832,37.640693 C 151.59832,28.008693 155.79732,21.120693 165.87732,21.120693 C 170.58232,21.120693 178.31132,23.248693 179.03732,32.544693 L 171.08632,32.544693 C 170.75032,30.584693 169.51832,27.504693 165.87732,27.728693 C 160.94932,27.728693 159.66232,32.656693 159.66232,36.352693 C 159.66232,39.600693 159.77332,46.040693 165.70932,46.040693 C 169.68632,46.040693 171.02932,42.232693 171.02932,40.832693 L 178.98232,40.832693 L 178.98232,40.833693 z "
   id="path2171" /><path
   inkscape:export-ydpi="10.43"
   inkscape:export-xdpi="10.43"
   inkscape:export-filename="/home/cjd/source/Lyricue/precue/images/text2757.png"
   style="fill:#ff0000;fill-rule:nonzero;stroke:#000000;stroke-width:0.46803999;stroke-miterlimit:4;stroke-dasharray:none;stroke-opacity:0.54000005;filter:url(#filter3785)"
   d="M 211.34932,51.697693 L 203.84532,51.697693 L 203.84532,47.498693 L 203.73432,47.498693 C 201.94132,50.689693 198.80632,52.482693 194.66232,52.482693 C 188.78132,52.482693 184.52532,49.121693 184.52532,41.505693 L 184.52532,21.905693 L 192.36532,21.905693 L 192.36532,40.385693 C 192.36532,44.978693 195.05432,45.872693 197.46132,45.872693 C 200.03732,45.872693 203.51032,44.417693 203.51032,39.097693 L 203.51032,21.905693 L 211.35032,21.905693 L 211.35032,51.697693 L 211.34932,51.697693 z "
   id="path2173" /><path
   inkscape:export-ydpi="10.43"
   inkscape:export-xdpi="10.43"
   inkscape:export-filename="/home/cjd/source/Lyricue/precue/images/text2757.png"
   style="fill:#ff0000;fill-rule:nonzero;stroke:#000000;stroke-width:0.46803999;stroke-miterlimit:4;stroke-dasharray:none;stroke-opacity:0.54000005;filter:url(#filter3785)"
   d="M 244.27732,42.961693 C 242.20532,50.129693 236.26932,52.482693 231.17332,52.482693 C 222.77332,52.482693 216.33332,48.449693 216.33332,36.186693 C 216.33332,32.602693 217.56332,21.122693 230.61232,21.122693 C 236.49332,21.122693 244.61232,23.922693 244.61232,37.530693 L 244.61232,38.930693 L 224.17332,38.930693 C 224.39632,41.170693 224.84532,46.210693 231.17332,46.210693 C 233.35732,46.210693 235.59732,45.090693 236.21232,42.962693 L 244.27632,42.962693 M 236.54832,33.833693 C 236.10132,29.017693 233.02132,27.561693 230.50132,27.561693 C 226.80432,27.561693 224.84532,29.913693 224.39632,33.833693 L 236.54832,33.833693 L 236.54832,33.833693 z "
   id="path2175" /><path
   inkscape:export-ydpi="10.43"
   inkscape:export-xdpi="10.43"
   inkscape:export-filename="/home/cjd/source/Lyricue/precue/images/text2757.png"
   style="fill:#ff0000;fill-rule:nonzero;stroke:#000000;stroke-width:0.46803999;stroke-miterlimit:4;stroke-dasharray:none;stroke-opacity:0.54000005;filter:url(#filter3785)"
   d="M 15.291427,31.042693 C 1.4394265,58.744693 -1.7075735,75.113693 15.291427,58.113693 C 32.290427,41.115693 38.585426,37.338693 38.585426,46.781693 C 38.585426,56.226693 54.010426,59.687693 55.584426,48.670693 C 57.158426,37.653693 54.955426,21.599693 48.029426,28.524693 C 41.104426,35.449693 34.493426,34.820693 34.493426,28.839693 C 34.493426,22.858693 36.224426,1.2956931 30.401426,7.1186931 C 24.577427,12.941693 15.291427,31.042693 15.291427,31.042693 L 15.291427,31.042693 z "
   id="path2177" /><path
   inkscape:export-ydpi="10.43"
   inkscape:export-xdpi="10.43"
   inkscape:export-filename="/home/cjd/source/Lyricue/precue/images/text2757.png"
   style="fill-rule:nonzero;stroke:#000000;stroke-width:0.46803999;stroke-miterlimit:4;stroke-dasharray:none;stroke-opacity:0.54000005;filter:url(#filter3785)"
   d="M 35.399426,62.687693 C 35.399426,66.146693 32.871426,68.949693 29.752427,68.949693 C 26.633427,68.949693 24.105427,66.146693 24.105427,62.687693 C 24.105427,59.230693 26.634427,56.425693 29.752427,56.425693 C 32.871426,56.425693 35.399426,59.230693 35.399426,62.687693 z "
   id="path2179" /><text
   inkscape:export-ydpi="10.43"
   inkscape:export-xdpi="10.43"
   inkscape:export-filename="/home/cjd/source/Lyricue/precue/images/text2757.png"
   transform="matrix(1.0056334,0,0,0.9943981,3.7224265,5.5726931)"
   sodipodi:linespacing="100%"
   id="text2181"
   y="46.010021"
   x="101.34271"
   style="font-size:57.88991928px;font-style:normal;font-variant:normal;font-weight:normal;font-stretch:normal;text-align:center;line-height:100%;writing-mode:lr-tb;text-anchor:middle;fill:#000000;fill-opacity:1;stroke:#000000;stroke-width:0.46804002;stroke-linecap:butt;stroke-linejoin:miter;stroke-miterlimit:4;stroke-dasharray:none;stroke-opacity:0.54000005;filter:url(#filter3785);font-family:Arial;opacity:0.76734694"
   xml:space="preserve"><tspan
     y="46.010021"
     x="101.34271"
     id="tspan2183"
     sodipodi:role="line">Pre</tspan></text>
<text
   inkscape:export-ydpi="10.43"
   inkscape:export-xdpi="10.43"
   transform="matrix(1.0922734,0,0,0.9155217,2.5545238,4.4047909)"
   sodipodi:linespacing="100%"
   id="text2185"
   y="63.888199"
   x="144.75763"
   style="font-size:13.40090084px;font-style:normal;font-variant:normal;font-weight:normal;font-stretch:normal;text-align:center;line-height:100%;writing-mode:lr-tb;text-anchor:middle;fill:#000000;fill-opacity:1;stroke:#000000;stroke-width:0.46803999;stroke-linecap:butt;stroke-linejoin:miter;stroke-miterlimit:4;stroke-dasharray:none;stroke-opacity:0.54000005;filter:url(#filter3785);font-family:Arial"
   xml:space="preserve"><tspan
     y="63.888199"
     x="144.75763"
     id="tspan2187"
     sodipodi:role="line">The Lyricue web frontend</tspan></text>
<g
   id="g2779"
   style="stroke:#000000;stroke-width:0.46803999;stroke-miterlimit:4;stroke-dasharray:none;stroke-opacity:0.54000005"
   transform="translate(1.8502665,3.7005331)"
   inkscape:export-xdpi="208.16391"
   inkscape:export-ydpi="208.16391"><path
   inkscape:export-ydpi="10.43"
   inkscape:export-xdpi="10.43"
   inkscape:export-filename="/home/cjd/source/Lyricue/precue/images/text2757.png"
   style="fill:#ff0000;fill-rule:nonzero;stroke:#000000;stroke-width:0.46803999;stroke-miterlimit:4;stroke-dasharray:none;stroke-opacity:0.54000005"
   d="M 175.25989,35.261 C 174.97889,38.341 172.57089,46.909 161.65089,46.909 C 150.45189,46.909 147.87589,38.341 147.87589,32.068 C 147.87589,22.436 152.07489,15.548 162.15489,15.548 C 166.85989,15.548 174.58889,17.676 175.31489,26.972 L 167.36389,26.972 C 167.02789,25.012 165.79589,21.932 162.15489,22.156 C 157.22689,22.156 155.93989,27.084 155.93989,30.78 C 155.93989,34.028 156.05089,40.468 161.98689,40.468 C 165.96389,40.468 167.30689,36.66 167.30689,35.26 L 175.25989,35.26 L 175.25989,35.261 z "
   id="path2705" /><path
   inkscape:export-ydpi="10.43"
   inkscape:export-xdpi="10.43"
   inkscape:export-filename="/home/cjd/source/Lyricue/precue/images/text2757.png"
   style="fill:#ff0000;fill-rule:nonzero;stroke:#000000;stroke-width:0.46803999;stroke-miterlimit:4;stroke-dasharray:none;stroke-opacity:0.54000005"
   d="M 207.62689,46.125 L 200.12289,46.125 L 200.12289,41.926 L 200.01189,41.926 C 198.21889,45.117 195.08389,46.91 190.93989,46.91 C 185.05889,46.91 180.80289,43.549 180.80289,35.933 L 180.80289,16.333 L 188.64289,16.333 L 188.64289,34.813 C 188.64289,39.406 191.33189,40.3 193.73889,40.3 C 196.31489,40.3 199.78789,38.845 199.78789,33.525 L 199.78789,16.333 L 207.62789,16.333 L 207.62789,46.125 L 207.62689,46.125 z "
   id="path2707" /><path
   inkscape:export-ydpi="10.43"
   inkscape:export-xdpi="10.43"
   inkscape:export-filename="/home/cjd/source/Lyricue/precue/images/text2757.png"
   style="fill:#ff0000;fill-rule:nonzero;stroke:#000000;stroke-width:0.46803999;stroke-miterlimit:4;stroke-dasharray:none;stroke-opacity:0.54000005"
   d="M 240.55489,37.389 C 238.48289,44.557 232.54689,46.91 227.45089,46.91 C 219.05089,46.91 212.61089,42.877 212.61089,30.614 C 212.61089,27.03 213.84089,15.55 226.88989,15.55 C 232.77089,15.55 240.88989,18.35 240.88989,31.958 L 240.88989,33.358 L 220.45089,33.358 C 220.67389,35.598 221.12289,40.638 227.45089,40.638 C 229.63489,40.638 231.87489,39.518 232.48989,37.39 L 240.55389,37.39 M 232.82589,28.261 C 232.37889,23.445 229.29889,21.989 226.77889,21.989 C 223.08189,21.989 221.12289,24.341 220.67389,28.261 L 232.82589,28.261 L 232.82589,28.261 z "
   id="path2709" /><path
   inkscape:export-ydpi="10.43"
   inkscape:export-xdpi="10.43"
   inkscape:export-filename="/home/cjd/source/Lyricue/precue/images/text2757.png"
   style="fill:#ff0000;fill-rule:nonzero;stroke:#000000;stroke-width:0.46803999;stroke-miterlimit:4;stroke-dasharray:none;stroke-opacity:0.54000005"
   d="M 11.569,25.47 C -2.283,53.172 -5.43,69.541 11.569,52.541 C 28.568,35.543 34.863,31.766 34.863,41.209 C 34.863,50.654 50.288,54.115 51.862,43.098 C 53.436,32.081 51.233,16.027 44.307,22.952 C 37.382,29.877 30.771,29.248 30.771,23.267 C 30.771,17.286 32.502,-4.277 26.679,1.546 C 20.855,7.369 11.569,25.47 11.569,25.47 L 11.569,25.47 z "
   id="path2711" /><path
   inkscape:export-ydpi="10.43"
   inkscape:export-xdpi="10.43"
   inkscape:export-filename="/home/cjd/source/Lyricue/precue/images/text2757.png"
   style="fill-rule:nonzero;stroke:#000000;stroke-width:0.46803999;stroke-miterlimit:4;stroke-dasharray:none;stroke-opacity:0.54000005"
   d="M 31.677,57.115 C 31.677,60.574 29.149,63.377 26.03,63.377 C 22.911,63.377 20.383,60.574 20.383,57.115 C 20.383,53.658 22.912,50.853 26.03,50.853 C 29.149,50.853 31.677,53.658 31.677,57.115 z "
   id="path2713" /><text
   inkscape:export-ydpi="10.43"
   inkscape:export-xdpi="10.43"
   inkscape:export-filename="/home/cjd/source/Lyricue/precue/images/text2757.png"
   transform="scale(1.0056334,0.9943981)"
   sodipodi:linespacing="100%"
   id="text2753"
   y="46.010021"
   x="101.34271"
   style="font-size:57.88991928px;font-style:normal;font-variant:normal;font-weight:normal;font-stretch:normal;text-align:center;line-height:100%;writing-mode:lr-tb;text-anchor:middle;fill:#000000;fill-opacity:1;stroke:#000000;stroke-width:0.46804002;stroke-linecap:butt;stroke-linejoin:miter;stroke-miterlimit:4;stroke-dasharray:none;stroke-opacity:0.54000005;font-family:Arial"
   xml:space="preserve"><tspan
     y="46.010021"
     x="101.34271"
     id="tspan2755"
     sodipodi:role="line">Pre</tspan></text>


<text
   inkscape:export-ydpi="10.43"
   inkscape:export-xdpi="10.43"
   transform="scale(1.0922734,0.9155217)"
   sodipodi:linespacing="100%"
   id="text2757"
   y="63.888199"
   x="144.75763"
   style="font-size:13.40090084px;font-style:normal;font-variant:normal;font-weight:normal;font-stretch:normal;text-align:center;line-height:100%;writing-mode:lr-tb;text-anchor:middle;fill:#000000;fill-opacity:1;stroke:#000000;stroke-width:0.46803999;stroke-linecap:butt;stroke-linejoin:miter;stroke-miterlimit:4;stroke-dasharray:none;stroke-opacity:0.54000005;font-family:Arial"
   xml:space="preserve"><tspan
     y="63.888199"
     x="144.75763"
     id="tspan2759"
     sodipodi:role="line">The Lyricue web frontend</tspan></text>


</g></svg>